<svg xmlns="http://www.w3.org/2000/svg" width="84" height="18" viewBox="0 0 84 18" fill="none">
  <path d="M5.49999 2.95998C6.97999 2.95998 8.27332 3.25331 9.37999 3.83998C10.4867 4.42665 11.34 5.25331 11.94 6.31998C12.5533 7.37331 12.86 8.59331 12.86 9.97998C12.86 11.3533 12.5533 12.5733 11.94 13.64C11.34 14.7066 10.48 15.5333 9.35999 16.12C8.25332 16.7066 6.96666 17 5.49999 17H0.23999V2.95998H5.49999ZM5.27999 14.04C6.57332 14.04 7.57999 13.6866 8.29999 12.98C9.01999 12.2733 9.37999 11.2733 9.37999 9.97998C9.37999 8.68665 9.01999 7.67998 8.29999 6.95998C7.57999 6.23998 6.57332 5.87998 5.27999 5.87998H3.65999V14.04H5.27999Z" fill="url(#paint0_linear_17_256)"/>
  <path d="M16.9912 7.69998C17.3912 7.08665 17.8912 6.60665 18.4912 6.25998C19.0912 5.89998 19.7579 5.71998 20.4912 5.71998V9.33998H19.5512C18.6979 9.33998 18.0579 9.52665 17.6312 9.89998C17.2046 10.26 16.9912 10.9 16.9912 11.82V17H13.5712V5.83998H16.9912V7.69998Z" fill="url(#paint1_linear_17_256)"/>
  <path d="M22.6459 4.67998C22.0459 4.67998 21.5526 4.50665 21.1659 4.15998C20.7926 3.79998 20.6059 3.35998 20.6059 2.83998C20.6059 2.30665 20.7926 1.86665 21.1659 1.51998C21.5526 1.15998 22.0459 0.97998 22.6459 0.97998C23.2326 0.97998 23.7126 1.15998 24.0859 1.51998C24.4726 1.86665 24.6659 2.30665 24.6659 2.83998C24.6659 3.35998 24.4726 3.79998 24.0859 4.15998C23.7126 4.50665 23.2326 4.67998 22.6459 4.67998ZM24.3459 5.83998V17H20.9259V5.83998H24.3459Z" fill="url(#paint2_linear_17_256)"/>
  <path d="M32.4244 5.71998C33.731 5.71998 34.771 6.14665 35.5444 6.99998C36.331 7.83998 36.7244 8.99998 36.7244 10.48V17H33.3244V10.94C33.3244 10.1933 33.131 9.61331 32.7444 9.19998C32.3577 8.78665 31.8377 8.57998 31.1844 8.57998C30.531 8.57998 30.011 8.78665 29.6244 9.19998C29.2377 9.61331 29.0444 10.1933 29.0444 10.94V17H25.6244V5.83998H29.0444V7.31998C29.391 6.82665 29.8577 6.43998 30.4444 6.15998C31.031 5.86665 31.691 5.71998 32.4244 5.71998Z" fill="url(#paint3_linear_17_256)"/>
  <path d="M44.7209 17L41.3209 12.32V17H37.9009V2.19998H41.3209V10.38L44.7009 5.83998H48.9209L44.2809 11.44L48.9609 17H44.7209Z" fill="url(#paint4_linear_17_256)"/>
  <path d="M53.6042 17.16C52.6309 17.16 51.7642 16.9933 51.0042 16.66C50.2442 16.3266 49.6442 15.8733 49.2042 15.3C48.7642 14.7133 48.5175 14.06 48.4642 13.34H51.8442C51.8842 13.7266 52.0642 14.04 52.3842 14.28C52.7042 14.52 53.0975 14.64 53.5642 14.64C53.9909 14.64 54.3175 14.56 54.5442 14.4C54.7842 14.2266 54.9042 14.0066 54.9042 13.74C54.9042 13.42 54.7375 13.1866 54.4042 13.04C54.0709 12.88 53.5309 12.7066 52.7842 12.52C51.9842 12.3333 51.3175 12.14 50.7842 11.94C50.2509 11.7266 49.7909 11.4 49.4042 10.96C49.0175 10.5066 48.8242 9.89998 48.8242 9.13998C48.8242 8.49998 48.9975 7.91998 49.3442 7.39998C49.7042 6.86665 50.2242 6.44665 50.9042 6.13998C51.5975 5.83331 52.4175 5.67998 53.3642 5.67998C54.7642 5.67998 55.8642 6.02665 56.6642 6.71998C57.4775 7.41331 57.9442 8.33331 58.0642 9.47998H54.9042C54.8509 9.09331 54.6775 8.78665 54.3842 8.55998C54.1042 8.33331 53.7309 8.21998 53.2642 8.21998C52.8642 8.21998 52.5575 8.29998 52.3442 8.45998C52.1309 8.60665 52.0242 8.81331 52.0242 9.07998C52.0242 9.39998 52.1909 9.63998 52.5242 9.79998C52.8709 9.95998 53.4042 10.12 54.1242 10.28C54.9509 10.4933 55.6242 10.7066 56.1442 10.92C56.6642 11.12 57.1175 11.4533 57.5042 11.92C57.9042 12.3733 58.1109 12.9866 58.1242 13.76C58.1242 14.4133 57.9375 15 57.5642 15.52C57.2042 16.0266 56.6775 16.4266 55.9842 16.72C55.3042 17.0133 54.5109 17.16 53.6042 17.16Z" fill="url(#paint5_linear_17_256)"/>
  <path d="M65.2365 14.1V17H63.4966C62.2566 17 61.2899 16.7 60.5966 16.1C59.9032 15.4866 59.5566 14.4933 59.5566 13.12V8.67998H58.1966V5.83998H59.5566V3.11998H62.9766V5.83998H65.2166V8.67998H62.9766V13.16C62.9766 13.4933 63.0566 13.7333 63.2166 13.88C63.3766 14.0266 63.6432 14.1 64.0166 14.1H65.2365Z" fill="url(#paint6_linear_17_256)"/>
  <path d="M76.4615 11.24C76.4615 11.56 76.4415 11.8933 76.4016 12.24H68.6616C68.7149 12.9333 68.9349 13.4666 69.3215 13.84C69.7215 14.2 70.2082 14.38 70.7816 14.38C71.6349 14.38 72.2282 14.02 72.5616 13.3H76.2016C76.0149 14.0333 75.6749 14.6933 75.1815 15.28C74.7015 15.8666 74.0949 16.3266 73.3615 16.66C72.6282 16.9933 71.8082 17.16 70.9016 17.16C69.8082 17.16 68.8349 16.9266 67.9816 16.46C67.1282 15.9933 66.4616 15.3266 65.9816 14.46C65.5016 13.5933 65.2616 12.58 65.2616 11.42C65.2616 10.26 65.4949 9.24665 65.9615 8.37998C66.4415 7.51331 67.1082 6.84665 67.9615 6.37998C68.8149 5.91331 69.7949 5.67998 70.9016 5.67998C71.9816 5.67998 72.9416 5.90665 73.7816 6.35998C74.6216 6.81331 75.2749 7.45998 75.7416 8.29998C76.2216 9.13998 76.4615 10.12 76.4615 11.24ZM72.9615 10.34C72.9615 9.75331 72.7615 9.28665 72.3615 8.93998C71.9615 8.59331 71.4615 8.41998 70.8615 8.41998C70.2882 8.41998 69.8016 8.58665 69.4016 8.91998C69.0149 9.25331 68.7749 9.72665 68.6815 10.34H72.9615Z" fill="url(#paint7_linear_17_256)"/>
  <path d="M80.4858 7.69998C80.8858 7.08665 81.3858 6.60665 81.9858 6.25998C82.5858 5.89998 83.2524 5.71998 83.9858 5.71998V9.33998H83.0458C82.1924 9.33998 81.5524 9.52665 81.1258 9.89998C80.6991 10.26 80.4858 10.9 80.4858 11.82V17H77.0658V5.83998H80.4858V7.69998Z" fill="url(#paint8_linear_17_256)"/>
  <defs>
    <linearGradient id="paint0_linear_17_256" x1="16.2" y1="-5" x2="83.2581" y2="17.1888" gradientUnits="userSpaceOnUse">
      <stop stop-color="#FC2572"/>
      <stop offset="1" stop-color="#EF6C22"/>
    </linearGradient>
    <linearGradient id="paint1_linear_17_256" x1="16.2" y1="-5" x2="83.2581" y2="17.1888" gradientUnits="userSpaceOnUse">
      <stop stop-color="#FC2572"/>
      <stop offset="1" stop-color="#EF6C22"/>
    </linearGradient>
    <linearGradient id="paint2_linear_17_256" x1="16.2" y1="-5" x2="83.2581" y2="17.1888" gradientUnits="userSpaceOnUse">
      <stop stop-color="#FC2572"/>
      <stop offset="1" stop-color="#EF6C22"/>
    </linearGradient>
    <linearGradient id="paint3_linear_17_256" x1="16.2" y1="-5" x2="83.2581" y2="17.1888" gradientUnits="userSpaceOnUse">
      <stop stop-color="#FC2572"/>
      <stop offset="1" stop-color="#EF6C22"/>
    </linearGradient>
    <linearGradient id="paint4_linear_17_256" x1="16.2" y1="-5" x2="83.2581" y2="17.1888" gradientUnits="userSpaceOnUse">
      <stop stop-color="#FC2572"/>
      <stop offset="1" stop-color="#EF6C22"/>
    </linearGradient>
    <linearGradient id="paint5_linear_17_256" x1="16.2" y1="-5" x2="83.2581" y2="17.1888" gradientUnits="userSpaceOnUse">
      <stop stop-color="#FC2572"/>
      <stop offset="1" stop-color="#EF6C22"/>
    </linearGradient>
    <linearGradient id="paint6_linear_17_256" x1="16.2" y1="-5" x2="83.2581" y2="17.1888" gradientUnits="userSpaceOnUse">
      <stop stop-color="#FC2572"/>
      <stop offset="1" stop-color="#EF6C22"/>
    </linearGradient>
    <linearGradient id="paint7_linear_17_256" x1="16.2" y1="-5" x2="83.2581" y2="17.1888" gradientUnits="userSpaceOnUse">
      <stop stop-color="#FC2572"/>
      <stop offset="1" stop-color="#EF6C22"/>
    </linearGradient>
    <linearGradient id="paint8_linear_17_256" x1="16.2" y1="-5" x2="83.2581" y2="17.1888" gradientUnits="userSpaceOnUse">
      <stop stop-color="#FC2572"/>
      <stop offset="1" stop-color="#EF6C22"/>
    </linearGradient>
  </defs>
</svg>