<?xml version="1.0" encoding="UTF-8"?>
<svg width="167px" height="33px" viewBox="0 0 167 33" version="1.1" xmlns="http://www.w3.org/2000/svg" xmlns:xlink="http://www.w3.org/1999/xlink">
    <!-- Generator: Sketch 64 (93537) - https://sketch.com -->
    <title>drinkster-logo copy 2</title>
    <desc>Created with Sketch.</desc>
    <defs>
        <path d="M10.3826338,32.7101631 C13.5539562,32.7101631 16.2909454,32.0959849 18.5936012,30.8676286 C20.8962571,29.6392723 22.6542727,27.9209536 23.8676483,25.7126725 C25.0810238,23.5043915 25.6877116,20.9510665 25.6877116,18.0526976 C25.6877116,15.1267252 25.0810238,12.5664994 23.8676483,10.3720201 C22.6542727,8.17754078 20.8962571,6.47992472 18.5936012,5.27917189 C16.2909454,4.07841907 13.5539562,3.47804266 10.3826338,3.47804266 L10.3826338,3.47804266 L0,3.47804266 L0,32.7101631 L10.3826338,32.7101631 Z M9.88625292,27.4930991 L5.83247557,27.4930991 L5.83247557,8.57089084 L9.88625292,8.57089084 C13.0299986,8.57089084 15.4636439,9.39899624 17.1871887,11.055207 C18.9107335,12.7114178 19.7725058,15.0439147 19.7725058,18.0526976 C19.7725058,21.033877 18.9107335,23.3525721 17.1871887,25.0087829 C15.4636439,26.6649937 13.0299986,27.4930991 9.88625292,27.4930991 L9.88625292,27.4930991 Z M33.3310582,32.7101631 L33.3310582,21.6549561 C33.3310582,17.6800502 35.4682537,15.6925972 39.7426448,15.6925972 L39.7426448,15.6925972 L41.4386129,15.6925972 L41.4386129,9.44040151 C39.7012798,9.44040151 38.1294069,9.86135508 36.7229944,10.7032622 C35.3165818,11.5451694 34.1859364,12.6976161 33.3310582,14.1606023 L33.3310582,14.1606023 L33.3310582,9.77164366 L27.4985826,9.77164366 L27.4985826,32.7101631 L33.3310582,32.7101631 Z M45.0281822,6.33500627 C46.1036741,6.33500627 46.9723407,6.03826851 47.6341819,5.44479297 C48.2960231,4.85131744 48.6269437,4.09912171 48.6269437,3.18820577 C48.6269437,2.24968632 48.2960231,1.48368883 47.6341819,0.8902133 C46.9723407,0.296737767 46.1036741,0 45.0281822,0 C43.9526902,0 43.0840237,0.296737767 42.4221825,0.8902133 C41.7603413,1.48368883 41.4294207,2.24968632 41.4294207,3.18820577 C41.4294207,4.09912171 41.7603413,4.85131744 42.4221825,5.44479297 C43.0840237,6.03826851 43.9526902,6.33500627 45.0281822,6.33500627 Z M47.9237374,32.7101631 L47.9237374,9.77164366 L42.0912619,9.77164366 L42.0912619,32.7101631 L47.9237374,32.7101631 Z M56.4771157,32.7101631 L56.4771157,20.5370138 C56.4771157,18.5219573 56.9734966,16.9761606 57.9662584,15.8996236 C58.9590202,14.8230866 60.2827026,14.2848181 61.9373056,14.2848181 C63.5643319,14.2848181 64.8466492,14.7885822 65.7842576,15.7961104 C66.721866,16.8036386 67.1906702,18.2183187 67.1906702,20.0401506 L67.1906702,20.0401506 L67.1906702,32.7101631 L72.9817807,32.7101631 L72.9817807,19.3776662 C72.9817807,16.2308657 72.1958442,13.7879548 70.6239714,12.0489335 C69.0520985,10.3099122 66.9424797,9.44040151 64.2951149,9.44040151 C62.4750516,9.44040151 60.8687079,9.87515684 59.4760837,10.7446675 C58.0834595,11.6141782 57.0838035,12.8218319 56.4771157,14.3676286 L56.4771157,14.3676286 L56.4771157,9.77164366 L50.6446402,9.77164366 L50.6446402,32.7101631 L56.4771157,32.7101631 Z M81.3696986,32.7101631 L81.3696986,22.6900878 L88.9395074,32.7101631 L96.0543003,32.7101631 L86.1680473,21.1994981 L95.8061098,9.77164366 L88.8981423,9.77164366 L81.3696986,19.2948557 L81.3696986,2.07026349 L75.5372231,2.07026349 L75.5372231,32.7101631 L81.3696986,32.7101631 Z M105.848631,33 C108.440842,33 110.502202,32.3927227 112.03271,31.1781681 C113.563217,29.9636136 114.328471,28.3764115 114.328471,26.4165621 C114.328471,24.8431619 113.935503,23.5941029 113.149567,22.6693852 C112.36363,21.7446675 111.426022,21.0683814 110.336741,20.640527 C109.247461,20.2126725 107.834154,19.8055207 106.096821,19.4190715 C104.855869,19.1154329 103.904472,18.8531995 103.242631,18.6323714 C102.58079,18.4115433 102.029256,18.1079046 101.588028,17.7214555 C101.146801,17.3350063 100.926187,16.8243413 100.926187,16.1894605 C100.926187,15.3889586 101.201954,14.7540778 101.753488,14.2848181 C102.305023,13.8155583 103.077171,13.5809285 104.069933,13.5809285 C105.310885,13.5809285 106.317435,13.9121706 107.089583,14.574655 C107.861731,15.2371393 108.358112,16.1204517 108.578726,17.2245922 L108.578726,17.2245922 L114.038916,17.2245922 C113.625265,14.8782936 112.57735,13.0012547 110.89517,11.5934755 C109.21299,10.1856964 106.979276,9.48180678 104.194028,9.48180678 C101.519086,9.48180678 99.4232558,10.1028858 97.9065364,11.3450439 C96.389817,12.587202 95.6314573,14.2020075 95.6314573,16.1894605 C95.6314573,17.7352572 96.0106371,18.9498118 96.7689968,19.8331242 C97.5273565,20.7164366 98.4373882,21.3582183 99.4990918,21.7584693 C100.560795,22.1587202 101.946525,22.5520703 103.656282,22.9385194 C104.897234,23.2421581 105.855525,23.5043915 106.531155,23.7252196 C107.206784,23.9460477 107.772107,24.2634881 108.227123,24.6775408 C108.682138,25.0915935 108.909646,25.629862 108.909646,26.2923463 C108.909646,27.0652447 108.647668,27.6932246 108.12371,28.1762861 C107.599752,28.6593476 106.841393,28.9008783 105.848631,28.9008783 C104.469795,28.9008783 103.352938,28.576537 102.49806,27.9278545 C101.643182,27.2791719 101.146801,26.3889586 101.008917,25.2572146 L101.008917,25.2572146 L95.4246319,25.2572146 C95.8107059,27.7415307 96.8999862,29.653074 98.6924728,30.9918444 C100.484959,32.3306148 102.870345,33 105.848631,33 Z M128.342039,32.7101631 L128.342039,27.7001255 L126.06696,27.7001255 C125.019045,27.7001255 124.274474,27.4792974 123.833246,27.0376412 C123.392019,26.5959849 123.171405,25.8230866 123.171405,24.718946 L123.171405,24.718946 L123.171405,14.6988708 L128.300674,14.6988708 L128.300674,9.77164366 L123.171405,9.77164366 L123.171405,4.09912171 L117.338929,4.09912171 L117.338929,9.77164366 L114.153819,9.77164366 L114.153819,14.6988708 L117.338929,14.6988708 L117.338929,24.6361355 C117.338929,27.5345044 118.021453,29.6047679 119.386501,30.846926 C120.751548,32.0890841 122.716389,32.7101631 125.281024,32.7101631 L125.281024,32.7101631 L128.342039,32.7101631 Z M140.245989,33 C142.148782,33 143.879221,32.6411543 145.437306,31.923463 C146.99539,31.2057716 148.270813,30.2120452 149.263575,28.9422836 C150.256337,27.672522 150.90439,26.2371393 151.207734,24.6361355 L151.207734,24.6361355 L145.044337,24.6361355 C144.796147,25.7678795 144.22393,26.6649937 143.327687,27.327478 C142.431444,27.9899624 141.307692,28.3212045 139.956433,28.3212045 C138.439714,28.3212045 137.171185,27.838143 136.150846,26.8720201 C135.130508,25.9058971 134.578973,24.4015056 134.496243,22.3588457 L134.496243,22.3588457 L151.290464,22.3588457 C151.428347,21.6135508 151.497289,20.9510665 151.497289,20.3713927 C151.497289,18.2735257 151.035379,16.4033877 150.111559,14.7609787 C149.187739,13.1185696 147.877845,11.8281054 146.181877,10.8895859 C144.485909,9.9510665 142.507279,9.48180678 140.245989,9.48180678 C138.012275,9.48180678 136.026751,9.9510665 134.289418,10.8895859 C132.552085,11.8281054 131.200826,13.1875784 130.235641,14.968005 C129.270455,16.7484316 128.787863,18.8393977 128.787863,21.2409034 C128.787863,23.642409 129.270455,25.7264743 130.235641,27.4930991 C131.200826,29.259724 132.552085,30.619197 134.289418,31.5715182 C136.026751,32.5238394 138.012275,33 140.245989,33 Z M145.623448,19.7917189 L134.496243,19.7917189 C134.60655,17.9146801 135.19945,16.4930991 136.274942,15.5269762 C137.350433,14.5608532 138.674116,14.0777917 140.245989,14.0777917 C141.790285,14.0777917 143.093285,14.5608532 144.154988,15.5269762 C145.216692,16.4930991 145.706179,17.9146801 145.623448,19.7917189 L145.623448,19.7917189 Z M158.892445,32.7101631 L158.892445,21.6549561 C158.892445,17.6800502 161.029641,15.6925972 165.304032,15.6925972 L165.304032,15.6925972 L167,15.6925972 L167,9.44040151 C165.262667,9.44040151 163.690794,9.86135508 162.284381,10.7032622 C160.877969,11.5451694 159.747324,12.6976161 158.892445,14.1606023 L158.892445,14.1606023 L158.892445,9.77164366 L153.05997,9.77164366 L153.05997,32.7101631 L158.892445,32.7101631 Z" id="path-1"></path>
        <linearGradient x1="98.3316869%" y1="48.5617737%" x2="1.39535269%" y2="51.9523827%" id="linearGradient-3">
            <stop stop-color="#FF655B" offset="0%"></stop>
            <stop stop-color="#FF5864" offset="51.3883024%"></stop>
            <stop stop-color="#FD297B" offset="100%"></stop>
        </linearGradient>
    </defs>
    <g id="Page-1" stroke="none" stroke-width="1" fill="none" fill-rule="evenodd">
        <g id="HD-Desktop" transform="translate(-893.000000, -231.000000)">
            <g id="drinkster-logo-copy-2" transform="translate(893.000000, 231.000000)">
                <g id="Rectangle">
                    <mask id="mask-2" fill="white">
                        <use xlink:href="#path-1"></use>
                    </mask>
                    <use id="Mask" fill-opacity="0.85" fill="#212121" fill-rule="nonzero" xlink:href="#path-1"></use>
                    <rect fill="url(#linearGradient-3)" mask="url(#mask-2)" x="0" y="0" width="167" height="33"></rect>
                </g>
            </g>
        </g>
    </g>
</svg>