<?xml version="1.0" encoding="UTF-8"?>
<svg width="199px" height="41px" viewBox="0 0 199 41" version="1.1" xmlns="http://www.w3.org/2000/svg" xmlns:xlink="http://www.w3.org/1999/xlink">
    <!-- Generator: Sketch 64 (93537) - https://sketch.com -->
    <title>drinkster-logo copy</title>
    <desc>Created with Sketch.</desc>
    <defs>
        <path d="M19.3725428,41 C19.7162332,41 19.997379,40.71175 19.997379,40.359375 C19.997379,38.5896797 18.5992775,37.15625 16.873198,37.15625 L12.4993447,37.15625 L12.4993447,27.8431797 C17.2403045,26.6259766 20.5675267,22.0775547 19.9192744,17.0005703 L17.8104523,2.19417191 C17.6308272,0.936929703 16.5764161,0 15.3345237,0 L4.66547633,0 C3.4235839,0 2.36917284,0.936929703 2.18954769,2.19417191 L0.0807255649,17.0005703 C-0.567526722,22.0775547 2.75969545,26.6259766 7.50065526,27.8431797 L7.50065526,37.15625 L3.12680197,37.15625 C1.40072252,37.15625 0.00262104176,38.5896797 0.00262104176,40.359375 C0.00262104176,40.71175 0.283766815,41 0.627457227,41 L19.3725428,41 Z M15.1705347,10.25 L4.82946532,10.25 L5.74330349,3.84375 L14.2566965,3.84375 L15.1705347,10.25 Z" id="path-1"></path>
        <linearGradient x1="55.4934735%" y1="11.6575882%" x2="45.4880735%" y2="86.9620935%" id="linearGradient-3">
            <stop stop-color="#FF655B" offset="0%"></stop>
            <stop stop-color="#FF5864" offset="51.3883024%"></stop>
            <stop stop-color="#FD297B" offset="100%"></stop>
        </linearGradient>
    </defs>
    <g id="Page-1" stroke="none" stroke-width="1" fill="none" fill-rule="evenodd">
        <g id="HD-Desktop" transform="translate(-861.000000, -110.000000)">
            <g id="drinkster-logo-copy" transform="translate(861.000000, 110.000000)">
                <path d="M42.3826338,34.7101631 C45.5539562,34.7101631 48.2909454,34.0959849 50.5936012,32.8676286 C52.8962571,31.6392723 54.6542727,29.9209536 55.8676483,27.7126725 C57.0810238,25.5043915 57.6877116,22.9510665 57.6877116,20.0526976 C57.6877116,17.1267252 57.0810238,14.5664994 55.8676483,12.3720201 C54.6542727,10.1775408 52.8962571,8.47992472 50.5936012,7.27917189 C48.2909454,6.07841907 45.5539562,5.47804266 42.3826338,5.47804266 L42.3826338,5.47804266 L32,5.47804266 L32,34.7101631 L42.3826338,34.7101631 Z M41.8862529,29.4930991 L37.8324756,29.4930991 L37.8324756,10.5708908 L41.8862529,10.5708908 C45.0299986,10.5708908 47.4636439,11.3989962 49.1871887,13.055207 C50.9107335,14.7114178 51.7725058,17.0439147 51.7725058,20.0526976 C51.7725058,23.033877 50.9107335,25.3525721 49.1871887,27.0087829 C47.4636439,28.6649937 45.0299986,29.4930991 41.8862529,29.4930991 L41.8862529,29.4930991 Z M65.3310582,34.7101631 L65.3310582,23.6549561 C65.3310582,19.6800502 67.4682537,17.6925972 71.7426448,17.6925972 L71.7426448,17.6925972 L73.4386129,17.6925972 L73.4386129,11.4404015 C71.7012798,11.4404015 70.1294069,11.8613551 68.7229944,12.7032622 C67.3165818,13.5451694 66.1859364,14.6976161 65.3310582,16.1606023 L65.3310582,16.1606023 L65.3310582,11.7716437 L59.4985826,11.7716437 L59.4985826,34.7101631 L65.3310582,34.7101631 Z M77.0281822,8.33500627 C78.1036741,8.33500627 78.9723407,8.03826851 79.6341819,7.44479297 C80.2960231,6.85131744 80.6269437,6.09912171 80.6269437,5.18820577 C80.6269437,4.24968632 80.2960231,3.48368883 79.6341819,2.8902133 C78.9723407,2.29673777 78.1036741,2 77.0281822,2 C75.9526902,2 75.0840237,2.29673777 74.4221825,2.8902133 C73.7603413,3.48368883 73.4294207,4.24968632 73.4294207,5.18820577 C73.4294207,6.09912171 73.7603413,6.85131744 74.4221825,7.44479297 C75.0840237,8.03826851 75.9526902,8.33500627 77.0281822,8.33500627 Z M79.9237374,34.7101631 L79.9237374,11.7716437 L74.0912619,11.7716437 L74.0912619,34.7101631 L79.9237374,34.7101631 Z M88.4771157,34.7101631 L88.4771157,22.5370138 C88.4771157,20.5219573 88.9734966,18.9761606 89.9662584,17.8996236 C90.9590202,16.8230866 92.2827026,16.2848181 93.9373056,16.2848181 C95.5643319,16.2848181 96.8466492,16.7885822 97.7842576,17.7961104 C98.721866,18.8036386 99.1906702,20.2183187 99.1906702,22.0401506 L99.1906702,22.0401506 L99.1906702,34.7101631 L104.981781,34.7101631 L104.981781,21.3776662 C104.981781,18.2308657 104.195844,15.7879548 102.623971,14.0489335 C101.052099,12.3099122 98.9424797,11.4404015 96.2951149,11.4404015 C94.4750516,11.4404015 92.8687079,11.8751568 91.4760837,12.7446675 C90.0834595,13.6141782 89.0838035,14.8218319 88.4771157,16.3676286 L88.4771157,16.3676286 L88.4771157,11.7716437 L82.6446402,11.7716437 L82.6446402,34.7101631 L88.4771157,34.7101631 Z M113.369699,34.7101631 L113.369699,24.6900878 L120.939507,34.7101631 L128.0543,34.7101631 L118.168047,23.1994981 L127.80611,11.7716437 L120.898142,11.7716437 L113.369699,21.2948557 L113.369699,4.07026349 L107.537223,4.07026349 L107.537223,34.7101631 L113.369699,34.7101631 Z M137.848631,35 C140.440842,35 142.502202,34.3927227 144.03271,33.1781681 C145.563217,31.9636136 146.328471,30.3764115 146.328471,28.4165621 C146.328471,26.8431619 145.935503,25.5941029 145.149567,24.6693852 C144.36363,23.7446675 143.426022,23.0683814 142.336741,22.640527 C141.247461,22.2126725 139.834154,21.8055207 138.096821,21.4190715 C136.855869,21.1154329 135.904472,20.8531995 135.242631,20.6323714 C134.58079,20.4115433 134.029256,20.1079046 133.588028,19.7214555 C133.146801,19.3350063 132.926187,18.8243413 132.926187,18.1894605 C132.926187,17.3889586 133.201954,16.7540778 133.753488,16.2848181 C134.305023,15.8155583 135.077171,15.5809285 136.069933,15.5809285 C137.310885,15.5809285 138.317435,15.9121706 139.089583,16.574655 C139.861731,17.2371393 140.358112,18.1204517 140.578726,19.2245922 L140.578726,19.2245922 L146.038916,19.2245922 C145.625265,16.8782936 144.57735,15.0012547 142.89517,13.5934755 C141.21299,12.1856964 138.979276,11.4818068 136.194028,11.4818068 C133.519086,11.4818068 131.423256,12.1028858 129.906536,13.3450439 C128.389817,14.587202 127.631457,16.2020075 127.631457,18.1894605 C127.631457,19.7352572 128.010637,20.9498118 128.768997,21.8331242 C129.527357,22.7164366 130.437388,23.3582183 131.499092,23.7584693 C132.560795,24.1587202 133.946525,24.5520703 135.656282,24.9385194 C136.897234,25.2421581 137.855525,25.5043915 138.531155,25.7252196 C139.206784,25.9460477 139.772107,26.2634881 140.227123,26.6775408 C140.682138,27.0915935 140.909646,27.629862 140.909646,28.2923463 C140.909646,29.0652447 140.647668,29.6932246 140.12371,30.1762861 C139.599752,30.6593476 138.841393,30.9008783 137.848631,30.9008783 C136.469795,30.9008783 135.352938,30.576537 134.49806,29.9278545 C133.643182,29.2791719 133.146801,28.3889586 133.008917,27.2572146 L133.008917,27.2572146 L127.424632,27.2572146 C127.810706,29.7415307 128.899986,31.653074 130.692473,32.9918444 C132.484959,34.3306148 134.870345,35 137.848631,35 Z M160.342039,34.7101631 L160.342039,29.7001255 L158.06696,29.7001255 C157.019045,29.7001255 156.274474,29.4792974 155.833246,29.0376412 C155.392019,28.5959849 155.171405,27.8230866 155.171405,26.718946 L155.171405,26.718946 L155.171405,16.6988708 L160.300674,16.6988708 L160.300674,11.7716437 L155.171405,11.7716437 L155.171405,6.09912171 L149.338929,6.09912171 L149.338929,11.7716437 L146.153819,11.7716437 L146.153819,16.6988708 L149.338929,16.6988708 L149.338929,26.6361355 C149.338929,29.5345044 150.021453,31.6047679 151.386501,32.846926 C152.751548,34.0890841 154.716389,34.7101631 157.281024,34.7101631 L157.281024,34.7101631 L160.342039,34.7101631 Z M172.245989,35 C174.148782,35 175.879221,34.6411543 177.437306,33.923463 C178.99539,33.2057716 180.270813,32.2120452 181.263575,30.9422836 C182.256337,29.672522 182.90439,28.2371393 183.207734,26.6361355 L183.207734,26.6361355 L177.044337,26.6361355 C176.796147,27.7678795 176.22393,28.6649937 175.327687,29.327478 C174.431444,29.9899624 173.307692,30.3212045 171.956433,30.3212045 C170.439714,30.3212045 169.171185,29.838143 168.150846,28.8720201 C167.130508,27.9058971 166.578973,26.4015056 166.496243,24.3588457 L166.496243,24.3588457 L183.290464,24.3588457 C183.428347,23.6135508 183.497289,22.9510665 183.497289,22.3713927 C183.497289,20.2735257 183.035379,18.4033877 182.111559,16.7609787 C181.187739,15.1185696 179.877845,13.8281054 178.181877,12.8895859 C176.485909,11.9510665 174.507279,11.4818068 172.245989,11.4818068 C170.012275,11.4818068 168.026751,11.9510665 166.289418,12.8895859 C164.552085,13.8281054 163.200826,15.1875784 162.235641,16.968005 C161.270455,18.7484316 160.787863,20.8393977 160.787863,23.2409034 C160.787863,25.642409 161.270455,27.7264743 162.235641,29.4930991 C163.200826,31.259724 164.552085,32.619197 166.289418,33.5715182 C168.026751,34.5238394 170.012275,35 172.245989,35 Z M177.623448,21.7917189 L166.496243,21.7917189 C166.60655,19.9146801 167.19945,18.4930991 168.274942,17.5269762 C169.350433,16.5608532 170.674116,16.0777917 172.245989,16.0777917 C173.790285,16.0777917 175.093285,16.5608532 176.154988,17.5269762 C177.216692,18.4930991 177.706179,19.9146801 177.623448,21.7917189 L177.623448,21.7917189 Z M190.892445,34.7101631 L190.892445,23.6549561 C190.892445,19.6800502 193.029641,17.6925972 197.304032,17.6925972 L197.304032,17.6925972 L199,17.6925972 L199,11.4404015 C197.262667,11.4404015 195.690794,11.8613551 194.284381,12.7032622 C192.877969,13.5451694 191.747324,14.6976161 190.892445,16.1606023 L190.892445,16.1606023 L190.892445,11.7716437 L185.05997,11.7716437 L185.05997,34.7101631 L190.892445,34.7101631 Z" id="Drinkster" fill-opacity="0.85" fill="#212121" fill-rule="nonzero"></path>
                <g id="Rectangle">
                    <mask id="mask-2" fill="white">
                        <use xlink:href="#path-1"></use>
                    </mask>
                    <use id="Mask" fill-opacity="0.85" fill="#212121" fill-rule="nonzero" xlink:href="#path-1"></use>
                    <rect fill="url(#linearGradient-3)" mask="url(#mask-2)" x="0" y="0" width="20" height="41"></rect>
                </g>
            </g>
        </g>
    </g>
</svg>